<svg width="16" height="16" viewBox="0 0 16 16" fill="none" xmlns="http://www.w3.org/2000/svg">
<g opacity="0.3">
<path d="M3.2 8C3.2 8.27 3.2225 8.5375 3.265 8.8H0.3C0.135 8.8 0 8.665 0 8.5V7.5C0 7.335 0.135 7.2 0.3 7.2H3.265C3.2225 7.4625 3.2 7.73 3.2 8ZM15.7 7.2H12.735C12.78 7.4625 12.8 7.73 12.8 8C12.8 8.27 12.7775 8.5375 12.735 8.8H15.7C15.865 8.8 16 8.665 16 8.5V7.5C16 7.335 15.865 7.2 15.7 7.2ZM8 5.2C7.2525 5.2 6.55 5.4925 6.02 6.02C5.49 6.55 5.2 7.2525 5.2 8C5.2 8.7475 5.49 9.45 6.02 9.98C6.55 10.5075 7.2525 10.8 8 10.8C8.7475 10.8 9.45 10.5075 9.98 9.98C10.51 9.45 10.8 8.7475 10.8 8C10.8 7.2525 10.51 6.55 9.98 6.02C9.45 5.4925 8.7475 5.2 8 5.2ZM8 4C10.21 4 12 5.79 12 8C12 10.21 10.21 12 8 12C5.79 12 4 10.21 4 8C4 5.79 5.79 4 8 4Z" fill="black"/>
</g>
</svg>
