<svg width="24" height="24" viewBox="0 0 24 24" fill="none" xmlns="http://www.w3.org/2000/svg">
<path d="M12 1C5.92339 1 1 5.92339 1 12C1 18.0766 5.92339 23 12 23C18.0766 23 23 18.0766 23 12C23 5.92339 18.0766 1 12 1ZM16.1024 14.8831L15.2153 15.9919C15.1571 16.0647 15.0851 16.1253 15.0034 16.1703C14.9218 16.2153 14.8321 16.2437 14.7395 16.254C14.6468 16.2643 14.5531 16.2562 14.4636 16.2303C14.3741 16.2044 14.2905 16.161 14.2177 16.1028L11.246 13.8975C11.0383 13.7313 10.8707 13.5204 10.7556 13.2807C10.6404 13.0409 10.5806 12.7783 10.5806 12.5123V5.6129C10.5806 5.42469 10.6554 5.24418 10.7885 5.11109C10.9216 4.978 11.1021 4.90323 11.2903 4.90323H12.7097C12.8979 4.90323 13.0784 4.978 13.2115 5.11109C13.3446 5.24418 13.4194 5.42469 13.4194 5.6129V12L15.9919 13.8851C16.0647 13.9433 16.1254 14.0154 16.1703 14.0971C16.2153 14.1787 16.2437 14.2685 16.254 14.3612C16.2642 14.4539 16.2561 14.5477 16.2301 14.6372C16.2041 14.7268 16.1607 14.8103 16.1024 14.8831Z" fill="#FF9A00"/>
</svg>
