<svg width="16" height="16" viewBox="0 0 16 16" fill="none" xmlns="http://www.w3.org/2000/svg">
<g opacity="0.3">
<path d="M8.125 8C10.0582 8 11.625 6.4332 11.625 4.5C11.625 2.5668 10.0582 1 8.125 1C6.1918 1 4.625 2.5668 4.625 4.5C4.625 6.4332 6.1918 8 8.125 8ZM10.575 8.875H10.1184C9.51133 9.15391 8.83594 9.3125 8.125 9.3125C7.41406 9.3125 6.74141 9.15391 6.13164 8.875H5.675C3.64609 8.875 2 10.5211 2 12.55V13.6875C2 14.4121 2.58789 15 3.3125 15H12.9375C13.6621 15 14.25 14.4121 14.25 13.6875V12.55C14.25 10.5211 12.6039 8.875 10.575 8.875Z" fill="black"/>
</g>
</svg>
