<svg width="14" height="16" viewBox="0 0 14 16" fill="none" xmlns="http://www.w3.org/2000/svg">
<path d="M12.2788 5.75L12.9833 5.04375C13.1299 4.89687 13.1299 4.65937 12.9833 4.5125L12.4534 3.98125C12.3069 3.83438 12.07 3.83438 11.9235 3.98125L11.2782 4.62813C10.3087 3.76875 9.08365 3.19375 7.73076 3.04063V1.5H8.60359C8.80933 1.5 8.97766 1.33125 8.97766 1.125V0.375C8.97766 0.16875 8.80933 0 8.60359 0H5.36164C5.1559 0 4.98757 0.16875 4.98757 0.375V1.125C4.98757 1.33125 5.1559 1.5 5.36164 1.5H6.23447V3.04375C3.00499 3.41563 0.498718 6.1625 0.498718 9.5C0.498718 13.0906 3.40089 16 6.98262 16C10.5643 16 13.4665 13.0906 13.4665 9.5C13.4665 8.10312 13.027 6.80937 12.2788 5.75ZM6.98262 14.5C4.22696 14.5 1.995 12.2625 1.995 9.5C1.995 6.7375 4.22696 4.5 6.98262 4.5C9.73827 4.5 11.9702 6.7375 11.9702 9.5C11.9702 12.2625 9.73827 14.5 6.98262 14.5ZM7.35669 11H6.60855C6.40281 11 6.23447 10.8313 6.23447 10.625V6.375C6.23447 6.16875 6.40281 6 6.60855 6H7.35669C7.56243 6 7.73076 6.16875 7.73076 6.375V10.625C7.73076 10.8313 7.56243 11 7.35669 11Z" fill="black"/>
</svg>
